<svg width="153" height="50" viewBox="0 0 153 50" fill="none" xmlns="http://www.w3.org/2000/svg">
<path d="M12.0627 1.24773H19.176C21.2121 1.24773 22.6553 1.53123 23.6862 2.25286C24.8976 3.07759 25.5934 4.36623 25.5934 6.04145C25.5934 9.495 23.0419 11.0671 20.31 11.4022C19.9234 11.4537 19.5368 11.4537 19.2533 11.4537L17.5008 11.0156V14.5722C17.5008 16.7629 17.7327 16.9433 19.9234 17.1237V18H11.9339V17.1237C13.8668 16.9433 14.0988 16.7629 14.0988 14.5722V4.70127C14.0988 2.51059 13.8668 2.33018 12.0627 2.14977V1.24773ZM17.5008 3.30954V10.0105C17.8101 10.1393 18.3513 10.2682 18.8925 10.2682C19.8203 10.2682 21.8822 9.59809 21.8822 6.11877C21.8822 3.20646 20.2585 2.25286 18.6863 2.25286C18.1967 2.25286 17.8874 2.38173 17.7327 2.51059C17.5523 2.66523 17.5008 2.92295 17.5008 3.30954ZM43.2928 17.4072L43.1382 18.232C42.9836 18.232 42.7001 18.2062 42.365 18.2062C39.1177 18.0515 38.1383 17.3299 37.0816 15.7062C36.4115 14.6495 35.7157 13.2578 34.9683 11.8919C34.5559 11.1187 34.092 10.7836 33.2673 10.7836H32.7776V14.5465C32.7776 16.6856 33.0095 16.9175 34.9683 17.098V18H27.1849V17.098C29.1178 16.9175 29.4013 16.6856 29.4013 14.5465V4.64973C29.4013 2.58791 29.1694 2.33018 27.288 2.14977V1.24773H34.5301C36.7981 1.24773 38.0868 1.50545 39.1434 2.20132C40.1743 2.89718 40.8702 4.03118 40.8702 5.62909C40.8702 7.89709 39.3754 9.13418 37.6486 9.83005C38.0352 10.6032 38.9888 12.3042 39.762 13.4898C40.664 14.933 41.231 15.7578 41.7207 16.299C42.2877 16.8918 42.7258 17.201 43.2928 17.4072ZM32.7776 9.75273H33.4477C34.5301 9.75273 35.4064 9.57232 35.9734 9.08264C36.8497 8.361 37.2105 7.33009 37.2105 6.01568C37.2105 3.258 35.6126 2.27864 34.1693 2.27864C33.525 2.27864 33.1642 2.38173 33.0095 2.53636C32.8291 2.691 32.7776 2.94873 32.7776 3.48995V9.75273ZM61.2041 18H53.8331V17.098C55.3537 16.866 55.4825 16.5567 55.0702 15.4227C54.8125 14.6495 54.4259 13.5413 54.0393 12.5104H49.0909C48.8074 13.3094 48.4724 14.2372 48.1631 15.2681C47.7765 16.5052 47.8538 16.866 49.7352 17.098V18H43.9621V17.098C45.6631 16.8918 45.9982 16.6083 46.8487 14.4434L52.1321 1.19618L53.4465 0.861137C55.096 5.37136 56.6939 9.85582 58.3691 14.2887C59.2454 16.5567 59.5546 16.8918 61.2041 17.098V18ZM53.5496 11.1445L51.6424 5.55177H51.5651C50.8435 7.43318 50.1991 9.31459 49.529 11.1445H53.5496ZM83.8597 18H76.231V17.098C78.164 16.8918 78.2928 16.7114 78.2928 14.3403L78.2413 4.41777H78.1124L72.4166 17.8196H71.695L66.4374 4.6755H66.3343L66.025 11.4022C65.8961 13.5413 65.9219 14.7526 66.025 15.5516C66.1281 16.7114 66.6178 16.9433 68.3445 17.098V18H62.1333V17.098C63.6024 16.9691 64.0663 16.531 64.2467 15.6031C64.4013 14.8042 64.5817 13.4382 64.7879 10.7321L65.2003 5.62909C65.4065 2.71677 65.226 2.35595 63.0096 2.14977V1.24773H68.3445L73.2929 12.5362L78.3444 1.24773H83.5505V2.14977C81.4886 2.35595 81.3855 2.56214 81.4371 4.70127L81.669 14.3403C81.7206 16.7114 81.8495 16.8918 83.8597 17.098V18ZM103.207 1.24773V2.14977C101.815 2.22709 101.171 2.76832 101.042 3.67036C100.913 4.46932 100.81 5.42291 100.81 7.25277V10.062C100.81 12.7939 100.398 14.9588 98.9547 16.5052C97.7691 17.7423 96.0166 18.3866 94.1867 18.3866C92.4857 18.3866 90.8621 18.0258 89.625 17.0722C88.1817 15.9124 87.4858 14.0052 87.4858 10.9898V4.90745C87.4858 2.48482 87.2281 2.33018 85.3209 2.14977V1.24773H93.0785V2.14977C91.1971 2.33018 90.9394 2.48482 90.9394 4.90745V10.5259C90.9394 14.3918 92.3311 16.634 95.1146 16.634C98.1815 16.634 99.5217 14.3145 99.5217 10.0105V7.25277C99.5217 5.42291 99.3928 4.44355 99.264 3.67036C99.1093 2.76832 98.5166 2.25286 96.764 2.14977V1.24773H103.207ZM121.364 18H116.184C115.076 16.4794 112.937 13.464 111.107 10.7836C110.566 10.0105 110.231 9.85582 109.844 9.90736V14.5465C109.844 16.7629 110.076 16.9175 112.061 17.098V18H104.354V17.098C106.21 16.9175 106.468 16.7629 106.468 14.5465V4.70127C106.468 2.48482 106.236 2.33018 104.303 2.14977V1.24773H111.88V2.14977C110.05 2.33018 109.844 2.48482 109.844 4.70127V9.08264C110.385 8.928 111.03 8.51564 111.803 7.71668C113.53 5.96414 114.56 4.70127 115.411 3.5415C116.03 2.74255 115.978 2.35595 114.767 2.20132L114.303 2.14977V1.24773H121.004V2.14977C119.406 2.30441 118.349 2.61368 116.932 3.95386C115.411 5.34559 114.329 6.58268 113.169 7.76823C114.818 10.2424 116.725 12.8455 118.581 15.1908C119.638 16.531 120.334 16.9433 121.364 17.098V18ZM140.697 1.24773V2.14977C138.687 2.33018 138.532 2.48482 138.532 4.6755V14.598C138.532 16.7629 138.739 16.9175 140.697 17.098V18H132.837V17.098C134.873 16.9175 135.079 16.7629 135.079 14.5722V9.7785H128.043V14.5722C128.043 16.7629 128.249 16.9175 130.156 17.098V18H122.476V17.098C124.357 16.9175 124.589 16.7629 124.589 14.5722V4.6755C124.589 2.48482 124.357 2.33018 122.373 2.14977V1.24773H130.105V2.14977C128.249 2.33018 128.043 2.48482 128.043 4.6755V8.46409H135.079V4.6755C135.079 2.48482 134.873 2.33018 132.94 2.14977V1.24773H140.697ZM13.9965 44.5413L14.9243 44.7217C14.7439 45.8815 14.2285 48.2268 14.0223 49H0.87819V48.098C3.06887 47.9175 3.3266 47.7629 3.3266 45.5722V35.6755C3.3266 33.4333 3.06887 33.3044 1.23901 33.1498V32.2477H13.378C13.4037 32.7116 13.5326 34.5157 13.6357 36.1136L12.6821 36.2425C12.4501 35.3405 12.1151 34.49 11.6512 34.026C11.2131 33.5621 10.5172 33.3817 9.07392 33.3817H7.83683C6.88324 33.3817 6.78015 33.4333 6.78015 34.2838V39.7476H8.50692C10.6718 39.7476 11.0326 39.6187 11.3677 37.8146H12.2955V42.995H11.3677C11.0326 41.1393 10.6976 41.0362 8.50692 41.0362H6.78015V45.5207C6.78015 46.7578 6.88324 47.3763 7.39869 47.634C7.8626 47.8402 8.73887 47.8918 9.71824 47.8918C11.0584 47.8918 11.9605 47.7114 12.5532 47.067C13.0687 46.5 13.5326 45.6753 13.9965 44.5413ZM33.8429 32.2477V33.124C32.4512 33.2013 31.91 33.5621 31.7811 34.7219C31.7038 35.5209 31.5491 36.7322 31.5491 39.026V49.2577H30.3121L19.5906 36.4229H19.5133V42.196C19.5133 44.464 19.6421 45.6238 19.7195 46.397C19.8483 47.531 20.2865 48.0206 22.1936 48.098V49H15.8793V48.098C17.3226 47.9949 17.9154 47.5825 18.0185 46.4743C18.1216 45.6238 18.2762 44.464 18.2762 42.196V36.8353C18.2762 35.1343 18.2504 34.6704 17.7607 34.0518C17.2711 33.4333 16.7041 33.2271 15.5958 33.124V32.2477H20.3638L30.2347 43.562H30.3121V39.026C30.3121 36.7322 30.1832 35.5209 30.1059 34.7735C29.977 33.6652 29.4616 33.2271 27.5544 33.124V32.2477H33.8429ZM50.1373 36.6033L49.2095 36.6549C48.9002 35.3147 48.5394 34.4384 48.0755 33.9745C47.6116 33.5106 46.9673 33.3817 45.4467 33.3817H44.2869V45.5722C44.2869 47.7629 44.5446 47.9175 46.8126 48.098V49H38.4107V48.098C40.5756 47.9175 40.8334 47.7629 40.8334 45.5722V33.3817H39.9571C37.818 33.3817 37.354 33.6395 36.9932 34.0776C36.5551 34.5157 36.2458 35.392 35.9108 36.6806H34.9572C35.0603 34.7992 35.2149 32.9178 35.2665 31.6034H35.9108C36.2974 32.1704 36.6324 32.2477 37.3798 32.2477H47.7405C48.4105 32.2477 48.7714 32.0931 49.2095 31.6034H49.8538C49.8796 32.6859 50.0085 34.9539 50.1373 36.6033ZM64.5604 44.5413L65.4882 44.7217C65.3078 45.8815 64.7923 48.2268 64.5862 49H51.4421V48.098C53.6327 47.9175 53.8905 47.7629 53.8905 45.5722V35.6755C53.8905 33.4333 53.6327 33.3044 51.8029 33.1498V32.2477H63.9418C63.9676 32.7116 64.0965 34.5157 64.1996 36.1136L63.246 36.2425C63.014 35.3405 62.679 34.49 62.2151 34.026C61.7769 33.5621 61.0811 33.3817 59.6378 33.3817H58.4007C57.4471 33.3817 57.344 33.4333 57.344 34.2838V39.7476H59.0708C61.2357 39.7476 61.5965 39.6187 61.9316 37.8146H62.8594V42.995H61.9316C61.5965 41.1393 61.2615 41.0362 59.0708 41.0362H57.344V45.5207C57.344 46.7578 57.4471 47.3763 57.9626 47.634C58.4265 47.8402 59.3027 47.8918 60.2821 47.8918C61.6223 47.8918 62.5243 47.7114 63.1171 47.067C63.6326 46.5 64.0965 45.6753 64.5604 44.5413ZM82.7573 48.4072L82.6027 49.232C82.4481 49.232 82.1646 49.2062 81.8295 49.2062C78.5822 49.0515 77.6028 48.3299 76.5461 46.7062C75.876 45.6495 75.1802 44.2578 74.4327 42.8919C74.0204 42.1187 73.5565 41.7836 72.7317 41.7836H72.2421V45.5465C72.2421 47.6856 72.474 47.9175 74.4327 48.098V49H66.6494V48.098C68.5823 47.9175 68.8658 47.6856 68.8658 45.5465V35.6497C68.8658 33.5879 68.6339 33.3302 66.7525 33.1498V32.2477H73.9946C76.2626 32.2477 77.5512 32.5055 78.6079 33.2013C79.6388 33.8972 80.3347 35.0312 80.3347 36.6291C80.3347 38.8971 78.8399 40.1342 77.1131 40.83C77.4997 41.6032 78.4533 43.3042 79.2265 44.4898C80.1285 45.933 80.6955 46.7578 81.1852 47.299C81.7522 47.8918 82.1903 48.201 82.7573 48.4072ZM72.2421 40.7527H72.9122C73.9946 40.7527 74.8709 40.5723 75.4379 40.0826C76.3142 39.361 76.675 38.3301 76.675 37.0157C76.675 34.258 75.0771 33.2786 73.6338 33.2786C72.9895 33.2786 72.6287 33.3817 72.474 33.5364C72.2936 33.691 72.2421 33.9487 72.2421 34.49V40.7527ZM83.8186 32.2477H90.9319C92.968 32.2477 94.4112 32.5312 95.4421 33.2529C96.6535 34.0776 97.3493 35.3662 97.3493 37.0415C97.3493 40.495 94.7978 42.0671 92.0659 42.4022C91.6793 42.4537 91.2927 42.4537 91.0092 42.4537L89.2567 42.0156V45.5722C89.2567 47.7629 89.4886 47.9433 91.6793 48.1237V49H83.6898V48.1237C85.6227 47.9433 85.8547 47.7629 85.8547 45.5722V35.7013C85.8547 33.5106 85.6227 33.3302 83.8186 33.1498V32.2477ZM89.2567 34.3095V41.0105C89.566 41.1393 90.1072 41.2682 90.6484 41.2682C91.5762 41.2682 93.6381 40.5981 93.6381 37.1188C93.6381 34.2065 92.0144 33.2529 90.4422 33.2529C89.9526 33.2529 89.6433 33.3817 89.4886 33.5106C89.3082 33.6652 89.2567 33.923 89.2567 34.3095ZM115.049 48.4072L114.894 49.232C114.739 49.232 114.456 49.2062 114.121 49.2062C110.874 49.0515 109.894 48.3299 108.838 46.7062C108.167 45.6495 107.472 44.2578 106.724 42.8919C106.312 42.1187 105.848 41.7836 105.023 41.7836H104.533V45.5465C104.533 47.6856 104.765 47.9175 106.724 48.098V49H98.9408V48.098C100.874 47.9175 101.157 47.6856 101.157 45.5465V35.6497C101.157 33.5879 100.925 33.3302 99.0439 33.1498V32.2477H106.286C108.554 32.2477 109.843 32.5055 110.899 33.2013C111.93 33.8972 112.626 35.0312 112.626 36.6291C112.626 38.8971 111.131 40.1342 109.405 40.83C109.791 41.6032 110.745 43.3042 111.518 44.4898C112.42 45.933 112.987 46.7578 113.477 47.299C114.044 47.8918 114.482 48.201 115.049 48.4072ZM104.533 40.7527H105.204C106.286 40.7527 107.162 40.5723 107.729 40.0826C108.606 39.361 108.966 38.3301 108.966 37.0157C108.966 34.258 107.368 33.2786 105.925 33.2786C105.281 33.2786 104.92 33.3817 104.765 33.5364C104.585 33.691 104.533 33.9487 104.533 34.49V40.7527ZM123.739 49H115.981V48.098C117.914 47.9175 118.146 47.7371 118.146 45.5722V35.7013C118.146 33.4848 117.914 33.3302 115.981 33.1498V32.2477H123.739V33.1498C121.806 33.3302 121.6 33.4848 121.6 35.7013V45.5722C121.6 47.7371 121.806 47.9175 123.739 48.098V49ZM136.159 36.2425L135.257 36.4487C134.742 34.825 133.763 32.9178 131.675 32.9178C130.232 32.9178 129.175 33.9745 129.175 35.4693C129.175 36.8868 130.103 37.6858 132.371 38.8455C135.077 40.16 136.933 41.6032 136.933 44.1547C136.933 47.0928 134.433 49.3866 130.67 49.3866C129.742 49.3866 128.84 49.2577 128.067 49.0258C127.345 48.8196 126.855 48.6134 126.52 48.4588C126.263 47.8145 125.928 45.6495 125.747 44.1032L126.649 43.7939C127.165 45.4434 128.685 48.3557 131.16 48.3557C132.732 48.3557 133.737 47.2732 133.737 45.6238C133.737 44.1032 132.603 43.1496 130.67 42.1187C128.041 40.7785 126.185 39.3868 126.185 36.9126C126.185 34.0776 128.428 31.8611 132.087 31.8611C133.737 31.8611 135.206 32.3766 135.67 32.5312C135.773 33.4848 135.953 34.6446 136.159 36.2425ZM151.241 44.5413L152.169 44.7217C151.989 45.8815 151.473 48.2268 151.267 49H138.123V48.098C140.314 47.9175 140.571 47.7629 140.571 45.5722V35.6755C140.571 33.4333 140.314 33.3044 138.484 33.1498V32.2477H150.623C150.649 32.7116 150.777 34.5157 150.88 36.1136L149.927 36.2425C149.695 35.3405 149.36 34.49 148.896 34.026C148.458 33.5621 147.762 33.3817 146.319 33.3817H145.082C144.128 33.3817 144.025 33.4333 144.025 34.2838V39.7476H145.752C147.917 39.7476 148.277 39.6187 148.612 37.8146H149.54V42.995H148.612C148.277 41.1393 147.942 41.0362 145.752 41.0362H144.025V45.5207C144.025 46.7578 144.128 47.3763 144.643 47.634C145.107 47.8402 145.984 47.8918 146.963 47.8918C148.303 47.8918 149.205 47.7114 149.798 47.067C150.313 46.5 150.777 45.6753 151.241 44.5413Z" fill="black"/>
</svg>
